<svg width="32" height="35" viewBox="0 0 32 35" fill="none" xmlns="http://www.w3.org/2000/svg">
<path fill-rule="evenodd" clip-rule="evenodd" d="M7.51467 10.689H7.59512V10.603H0.654145V10.6723L0.647792 10.6567L0.567383 10.689L9.80408 33.2811L9.7705 33.3634L9.85094 33.3957L9.93135 33.3634L9.89768 33.281L13.1479 25.3107L13.2288 25.2796L7.51467 10.689ZM7.59512 10.603L0.661 10.689L9.85083 33.1664L13.0675 25.2785L13.1479 25.3107L7.59512 10.603Z" fill="#58585A"/>
<path d="M7.59512 10.603L0.661 10.689L9.85083 33.1664L13.0675 25.2785L13.1479 25.3107L7.59512 10.603Z" fill="#58585A"/>
<path fill-rule="evenodd" clip-rule="evenodd" d="M24.9926 10.2525H32L22.0892 34.6523L18.3929 25.3143L11.7446 8.8481L15.936 0.875L22.111 17.8395L24.9926 10.2525ZM24.9926 10.2525H32L22.0892 34.6523L11.7446 8.8481L15.936 0.875L22.111 17.8395L24.9926 10.2525Z" fill="#58585A"/>
<path d="M24.9926 10.2525H32L22.0892 34.6523L11.7446 8.8481L15.936 0.875L22.111 17.8395L24.9926 10.2525Z" fill="#58585A"/>
<path fill-rule="evenodd" clip-rule="evenodd" d="M6.94728 12.0323H7.02774V11.9463H0.0867622V12.0155L0.0804088 12L0 12.0323L9.2367 34.6243L9.20312 34.7067L9.28355 34.7389L9.36396 34.7066L9.3303 34.6243L12.5805 26.654L12.6614 26.6229L6.94728 12.0323ZM7.02774 11.9463L0.0936176 12.0323L9.28345 34.5097L12.5001 26.6218L12.5805 26.654L7.02774 11.9463Z" fill="#DA051F"/>
<path d="M7.02774 11.9463L0.0936176 12.0323L9.28345 34.5097L12.5001 26.6218L12.5805 26.654L7.02774 11.9463Z" fill="#DA051F"/>
<path fill-rule="evenodd" clip-rule="evenodd" d="M23.153 12.043L29.995 11.957V12.0262L30.0014 12.0107L30.0815 12.043L20.823 34.6305L17.5349 26.6577L10.9585 10.3236L15.0254 2.58643L20.7428 18.0608L23.153 12.043ZM23.153 12.043H29.9882L20.8231 34.5097L10.9585 10.3236L15.0254 2.58643L20.7428 18.0608L23.153 12.043Z" fill="#DA051F"/>
<path d="M23.153 12.043H29.9882L20.8231 34.5097L10.9585 10.3236L15.0254 2.58643L20.7428 18.0608L23.153 12.043Z" fill="#DA051F"/>
</svg>
