<svg width="29" height="28" viewBox="0 0 29 28" fill="none" xmlns="http://www.w3.org/2000/svg">
<g clip-path="url(#clip0_214_28)">
<path d="M14.5605 2.69372C18.3635 2.69372 18.8139 2.7078 20.3158 2.77447C21.7044 2.83613 22.4585 3.06189 22.9605 3.25161C23.6252 3.503 24.0997 3.80335 24.5981 4.28825C25.0965 4.77315 25.4052 5.23483 25.6635 5.88162C25.8585 6.36998 26.0906 7.10374 26.1539 8.4548C26.2225 9.9161 26.2369 10.3544 26.2369 14.0545C26.2369 17.7547 26.2225 18.193 26.1539 19.6542C26.0906 21.0054 25.8585 21.7391 25.6635 22.2275C25.4052 22.8743 25.0965 23.3359 24.5981 23.8208C24.0997 24.3057 23.6252 24.6061 22.9605 24.8574C22.4585 25.0472 21.7044 25.273 20.3158 25.3346C18.8141 25.4013 18.3637 25.4154 14.5605 25.4154C10.7573 25.4154 10.3069 25.4013 8.80528 25.3346C7.41664 25.273 6.6625 25.0472 6.16062 24.8574C5.49581 24.6061 5.0213 24.3057 4.52294 23.8208C4.02457 23.3359 3.71588 22.8743 3.45756 22.2275C3.26251 21.7391 3.03049 21.0054 2.96711 19.6543C2.89859 18.193 2.88411 17.7547 2.88411 14.0545C2.88411 10.3544 2.89859 9.9161 2.96711 8.45486C3.03049 7.10374 3.26251 6.36998 3.45756 5.88162C3.71588 5.23483 4.02457 4.77315 4.52294 4.28825C5.0213 3.80335 5.49581 3.503 6.16062 3.25161C6.6625 3.06189 7.41664 2.83613 8.80523 2.77447C10.3071 2.7078 10.7575 2.69372 14.5605 2.69372ZM14.5605 0.196777C10.6924 0.196777 10.2074 0.21273 8.68831 0.28017C7.17229 0.3475 6.13699 0.581726 5.231 0.924318C4.29442 1.27846 3.50014 1.7523 2.70834 2.5227C1.91655 3.29309 1.42955 4.0659 1.06556 4.97717C0.713456 5.85868 0.472724 6.86599 0.403524 8.34104C0.33421 9.81906 0.317871 10.291 0.317871 14.0545C0.317871 17.8181 0.33421 18.29 0.403524 19.768C0.472724 21.2431 0.713456 22.2504 1.06556 23.1319C1.42955 24.0431 1.91655 24.816 2.70834 25.5864C3.50014 26.3568 4.29442 26.8306 5.231 27.1848C6.13699 27.5274 7.17229 27.7616 8.68831 27.8289C10.2074 27.8964 10.6924 27.9123 14.5605 27.9123C18.4286 27.9123 18.9137 27.8964 20.4327 27.8289C21.9488 27.7616 22.984 27.5274 23.89 27.1848C24.8266 26.8306 25.6209 26.3568 26.4127 25.5864C27.2045 24.816 27.6915 24.0432 28.0555 23.1319C28.4076 22.2504 28.6483 21.2431 28.7175 19.768C28.7868 18.29 28.8032 17.8181 28.8032 14.0545C28.8032 10.291 28.7868 9.81906 28.7175 8.34104C28.6483 6.86599 28.4076 5.85868 28.0555 4.97717C27.6915 4.0659 27.2045 3.29309 26.4127 2.5227C25.6209 1.7523 24.8266 1.27846 23.89 0.924318C22.984 0.581726 21.9488 0.3475 20.4327 0.28017C18.9137 0.21273 18.4286 0.196777 14.5605 0.196777ZM14.5605 6.93839C10.5212 6.93839 7.24669 10.1244 7.24669 14.0545C7.24669 17.9847 10.5212 21.1707 14.5605 21.1707C18.5998 21.1707 21.8744 17.9847 21.8744 14.0545C21.8744 10.1244 18.5998 6.93839 14.5605 6.93839ZM14.5605 18.6738C11.9385 18.6738 9.81293 16.6057 9.81293 14.0545C9.81293 11.5034 11.9385 9.43527 14.5605 9.43527C17.1825 9.43527 19.3081 11.5034 19.3081 14.0545C19.3081 16.6057 17.1825 18.6738 14.5605 18.6738ZM23.8724 6.65724C23.8724 7.57566 23.1072 8.3202 22.1633 8.3202C21.2194 8.3202 20.4542 7.57566 20.4542 6.65724C20.4542 5.73882 21.2194 4.99433 22.1633 4.99433C23.1072 4.99433 23.8724 5.73882 23.8724 6.65724Z" fill="#DA051F"/>
</g>
<defs>
<clipPath id="clip0_214_28">
<rect width="28.4854" height="27.7155" fill="white" transform="translate(0.317871 0.196777)"/>
</clipPath>
</defs>
</svg>
