<svg width="28" height="29" viewBox="0 0 28 29" fill="none" xmlns="http://www.w3.org/2000/svg">
<g clip-path="url(#clip0_214_32)">
<path d="M9.94705 12.3496H6.45263C6.29754 12.3496 6.17188 12.4578 6.17188 12.5911V22.2479C6.17188 22.3813 6.29754 22.4894 6.45263 22.4894H9.94705C10.1021 22.4894 10.2278 22.3813 10.2278 22.2479V12.5911C10.2278 12.4578 10.1021 12.3496 9.94705 12.3496Z" fill="#DA051F"/>
<path d="M8.20065 6.94189C7.08197 6.94189 6.17188 7.85145 6.17188 8.96944C6.17188 10.0879 7.08197 10.9978 8.20065 10.9978C9.31844 10.9978 10.2278 10.0879 10.2278 8.96944C10.2278 7.85145 9.31844 6.94189 8.20065 6.94189Z" fill="#DA051F"/>
<path d="M17.7622 11.6738C16.5187 11.6738 15.5995 12.2146 15.042 12.8291V12.1756C15.042 12.0366 14.9307 11.9239 14.7933 11.9239H11.8283C11.6909 11.9239 11.5796 12.0366 11.5796 12.1756V22.2379C11.5796 22.3769 11.6909 22.4896 11.8283 22.4896H14.9175C15.0549 22.4896 15.1663 22.3769 15.1663 22.2379V17.2594C15.1663 15.5817 15.6167 14.9282 16.7726 14.9282C18.0315 14.9282 18.1316 15.9759 18.1316 17.3457V22.238C18.1316 22.377 18.2429 22.4896 18.3803 22.4896H21.4707C21.6081 22.4896 21.7194 22.377 21.7194 22.238V16.7186C21.7194 14.224 21.2492 11.6738 17.7622 11.6738Z" fill="#DA051F"/>
<rect x="1.08789" y="1.85791" width="25.7155" height="25.7155" rx="7" stroke="#DA051F" stroke-width="2"/>
</g>
<defs>
<clipPath id="clip0_214_32">
<rect width="27.7155" height="27.7155" fill="white" transform="translate(0.0878906 0.85791)"/>
</clipPath>
</defs>
</svg>
