<svg width="273" height="72" viewBox="0 0 273 72" fill="none" xmlns="http://www.w3.org/2000/svg">
<path d="M85.43 43L80.78 22H85.25L88.1 36.22L92.18 22H96.29L100.37 36.19L103.22 22H107.54L102.92 43H98.33L94.19 28.36L89.99 43H85.43ZM109.2 43V27.37H113.31V43H109.2ZM111.24 25.51C110.6 25.51 110.05 25.28 109.59 24.82C109.13 24.36 108.9 23.81 108.9 23.17C108.9 22.51 109.13 21.96 109.59 21.52C110.05 21.06 110.6 20.83 111.24 20.83C111.9 20.83 112.45 21.06 112.89 21.52C113.35 21.96 113.58 22.51 113.58 23.17C113.58 23.81 113.35 24.36 112.89 24.82C112.45 25.28 111.9 25.51 111.24 25.51ZM115.774 43V22L119.884 21.31V43H115.774ZM128.199 43.3C126.759 43.3 125.429 43.12 124.209 42.76C122.989 42.38 121.929 41.84 121.029 41.14L123.069 38.41C123.969 39.01 124.829 39.46 125.649 39.76C126.489 40.06 127.319 40.21 128.139 40.21C129.059 40.21 129.789 40.06 130.329 39.76C130.889 39.44 131.169 39.03 131.169 38.53C131.169 38.13 131.009 37.81 130.689 37.57C130.389 37.33 129.899 37.16 129.219 37.06L126.219 36.61C124.659 36.37 123.479 35.87 122.679 35.11C121.879 34.33 121.479 33.31 121.479 32.05C121.479 31.03 121.739 30.16 122.259 29.44C122.799 28.7 123.549 28.13 124.509 27.73C125.489 27.31 126.649 27.1 127.989 27.1C129.129 27.1 130.239 27.26 131.319 27.58C132.419 27.9 133.449 28.39 134.409 29.05L132.429 31.72C131.569 31.18 130.749 30.79 129.969 30.55C129.189 30.31 128.399 30.19 127.599 30.19C126.859 30.19 126.259 30.33 125.799 30.61C125.359 30.89 125.139 31.26 125.139 31.72C125.139 32.14 125.299 32.47 125.619 32.71C125.939 32.95 126.489 33.12 127.269 33.22L130.239 33.67C131.799 33.89 132.989 34.39 133.809 35.17C134.629 35.93 135.039 36.92 135.039 38.14C135.039 39.14 134.739 40.03 134.139 40.81C133.539 41.57 132.729 42.18 131.709 42.64C130.689 43.08 129.519 43.3 128.199 43.3ZM144.101 43.3C142.541 43.3 141.131 42.94 139.871 42.22C138.611 41.5 137.611 40.53 136.871 39.31C136.131 38.09 135.761 36.72 135.761 35.2C135.761 33.68 136.121 32.31 136.841 31.09C137.581 29.85 138.581 28.87 139.841 28.15C141.121 27.43 142.541 27.07 144.101 27.07C145.661 27.07 147.071 27.43 148.331 28.15C149.611 28.87 150.611 29.85 151.331 31.09C152.071 32.31 152.441 33.68 152.441 35.2C152.441 36.72 152.071 38.09 151.331 39.31C150.611 40.53 149.621 41.5 148.361 42.22C147.101 42.94 145.681 43.3 144.101 43.3ZM144.101 39.73C144.921 39.73 145.651 39.53 146.291 39.13C146.951 38.73 147.471 38.19 147.851 37.51C148.251 36.81 148.451 36.04 148.451 35.2C148.451 34.34 148.251 33.57 147.851 32.89C147.471 32.21 146.951 31.67 146.291 31.27C145.651 30.85 144.921 30.64 144.101 30.64C143.301 30.64 142.571 30.85 141.911 31.27C141.251 31.67 140.731 32.21 140.351 32.89C139.971 33.57 139.781 34.34 139.781 35.2C139.781 36.04 139.971 36.81 140.351 37.51C140.731 38.19 141.251 38.73 141.911 39.13C142.571 39.53 143.301 39.73 144.101 39.73ZM154.218 43V27.37H158.328V28.66C159.508 27.6 160.968 27.07 162.708 27.07C163.928 27.07 164.998 27.34 165.918 27.88C166.858 28.4 167.588 29.13 168.108 30.07C168.628 30.99 168.888 32.07 168.888 33.31V43H164.778V33.91C164.778 32.89 164.488 32.09 163.908 31.51C163.328 30.91 162.538 30.61 161.538 30.61C160.838 30.61 160.218 30.75 159.678 31.03C159.138 31.29 158.688 31.67 158.328 32.17V43H154.218ZM176.806 43V22H186.676C188.096 22 189.336 22.24 190.396 22.72C191.456 23.2 192.286 23.88 192.886 24.76C193.486 25.62 193.786 26.62 193.786 27.76C193.786 28.68 193.546 29.53 193.066 30.31C192.606 31.07 191.976 31.69 191.176 32.17C192.196 32.65 193.006 33.3 193.606 34.12C194.206 34.94 194.506 35.87 194.506 36.91C194.506 38.11 194.196 39.17 193.576 40.09C192.976 41.01 192.116 41.73 190.996 42.25C189.896 42.75 188.616 43 187.156 43H176.806ZM181.156 30.58H186.406C187.346 30.58 188.086 30.36 188.626 29.92C189.186 29.46 189.466 28.85 189.466 28.09C189.466 27.33 189.186 26.73 188.626 26.29C188.086 25.83 187.346 25.6 186.406 25.6H181.156V30.58ZM181.156 39.4H186.826C187.826 39.4 188.626 39.16 189.226 38.68C189.826 38.18 190.126 37.52 190.126 36.7C190.126 35.86 189.826 35.2 189.226 34.72C188.626 34.22 187.826 33.97 186.826 33.97H181.156V39.4ZM202.295 43.3C201.095 43.3 200.025 43.04 199.085 42.52C198.165 41.98 197.435 41.24 196.895 40.3C196.375 39.36 196.115 38.28 196.115 37.06V27.37H200.225V36.46C200.225 37.46 200.515 38.26 201.095 38.86C201.695 39.46 202.495 39.76 203.495 39.76C204.175 39.76 204.785 39.63 205.325 39.37C205.885 39.09 206.345 38.7 206.705 38.2V27.37H210.815V43H206.705V41.74C205.505 42.78 204.035 43.3 202.295 43.3ZM220.918 43.3C219.358 43.3 217.938 42.94 216.658 42.22C215.398 41.5 214.398 40.53 213.658 39.31C212.918 38.09 212.548 36.72 212.548 35.2C212.548 33.68 212.898 32.31 213.598 31.09C214.318 29.87 215.288 28.9 216.508 28.18C217.728 27.46 219.088 27.1 220.588 27.1C222.088 27.1 223.418 27.47 224.578 28.21C225.738 28.95 226.648 29.95 227.308 31.21C227.988 32.47 228.328 33.9 228.328 35.5V36.58H216.748C216.928 37.2 217.218 37.76 217.618 38.26C218.038 38.76 218.548 39.15 219.148 39.43C219.768 39.71 220.428 39.85 221.128 39.85C221.828 39.85 222.468 39.74 223.048 39.52C223.648 39.3 224.158 38.99 224.578 38.59L227.278 41.05C226.318 41.83 225.328 42.4 224.308 42.76C223.308 43.12 222.178 43.3 220.918 43.3ZM216.688 33.64H224.278C224.138 33.02 223.878 32.48 223.498 32.02C223.138 31.54 222.698 31.17 222.178 30.91C221.678 30.63 221.118 30.49 220.498 30.49C219.858 30.49 219.278 30.62 218.758 30.88C218.238 31.14 217.798 31.51 217.438 31.99C217.098 32.45 216.848 33 216.688 33.64ZM230.097 43V27.37H234.207V28.66C235.387 27.6 236.847 27.07 238.587 27.07C239.807 27.07 240.877 27.34 241.797 27.88C242.737 28.4 243.467 29.13 243.987 30.07C244.507 30.99 244.767 32.07 244.767 33.31V43H240.657V33.91C240.657 32.89 240.367 32.09 239.787 31.51C239.207 30.91 238.417 30.61 237.417 30.61C236.717 30.61 236.097 30.75 235.557 31.03C235.017 31.29 234.567 31.67 234.207 32.17V43H230.097ZM254.75 43.3C253.19 43.3 251.78 42.94 250.52 42.22C249.26 41.5 248.26 40.53 247.52 39.31C246.78 38.09 246.41 36.72 246.41 35.2C246.41 33.68 246.77 32.31 247.49 31.09C248.23 29.85 249.23 28.87 250.49 28.15C251.77 27.43 253.19 27.07 254.75 27.07C256.31 27.07 257.72 27.43 258.98 28.15C260.26 28.87 261.26 29.85 261.98 31.09C262.72 32.31 263.09 33.68 263.09 35.2C263.09 36.72 262.72 38.09 261.98 39.31C261.26 40.53 260.27 41.5 259.01 42.22C257.75 42.94 256.33 43.3 254.75 43.3ZM254.75 39.73C255.57 39.73 256.3 39.53 256.94 39.13C257.6 38.73 258.12 38.19 258.5 37.51C258.9 36.81 259.1 36.04 259.1 35.2C259.1 34.34 258.9 33.57 258.5 32.89C258.12 32.21 257.6 31.67 256.94 31.27C256.3 30.85 255.57 30.64 254.75 30.64C253.95 30.64 253.22 30.85 252.56 31.27C251.9 31.67 251.38 32.21 251 32.89C250.62 33.57 250.43 34.34 250.43 35.2C250.43 36.04 250.62 36.81 251 37.51C251.38 38.19 251.9 38.73 252.56 39.13C253.22 39.53 253.95 39.73 254.75 39.73Z" fill="#58585A"/>
<path d="M84.6147 63.3857V51.4857H93.1317V52.6417H85.9237V56.8067H90.6327V57.9457H85.9237V62.2297H93.1997V63.3857H84.6147ZM93.4412 63.3857L96.7902 58.9997L93.6112 54.8687H95.1072L97.5212 58.0647L99.9353 54.8687H101.38L98.2352 58.9827L101.601 63.3857H100.105L97.5043 59.9177L94.8692 63.3857H93.4412ZM105.584 63.5387C104.768 63.5387 104.026 63.3461 103.357 62.9607C102.7 62.5641 102.173 62.0314 101.776 61.3627C101.391 60.6941 101.198 59.9461 101.198 59.1187C101.198 58.3027 101.385 57.5661 101.759 56.9087C102.133 56.2401 102.637 55.7131 103.272 55.3277C103.907 54.9311 104.615 54.7327 105.397 54.7327C106.156 54.7327 106.836 54.9311 107.437 55.3277C108.049 55.7131 108.531 56.2401 108.882 56.9087C109.245 57.5661 109.426 58.3027 109.426 59.1187V59.5097H102.439C102.507 60.0651 102.683 60.5637 102.966 61.0057C103.261 61.4477 103.64 61.7991 104.105 62.0597C104.57 62.3091 105.08 62.4337 105.635 62.4337C106.077 62.4337 106.508 62.3657 106.927 62.2297C107.346 62.0937 107.698 61.9011 107.981 61.6517L108.763 62.4847C108.287 62.8361 107.788 63.1024 107.267 63.2837C106.757 63.4537 106.196 63.5387 105.584 63.5387ZM102.473 58.5067H108.168C108.1 57.9967 107.93 57.5434 107.658 57.1467C107.397 56.7387 107.069 56.4214 106.672 56.1947C106.275 55.9567 105.839 55.8377 105.363 55.8377C104.876 55.8377 104.428 55.9511 104.02 56.1777C103.612 56.4044 103.272 56.7217 103 57.1297C102.728 57.5264 102.552 57.9854 102.473 58.5067ZM114.704 63.5387C113.899 63.5387 113.168 63.3461 112.511 62.9607C111.854 62.5641 111.332 62.0314 110.947 61.3627C110.562 60.6941 110.369 59.9461 110.369 59.1187C110.369 58.2914 110.562 57.5491 110.947 56.8917C111.332 56.2231 111.854 55.6904 112.511 55.2937C113.168 54.8971 113.899 54.6987 114.704 54.6987C115.327 54.6987 115.928 54.8177 116.506 55.0557C117.084 55.2824 117.594 55.6111 118.036 56.0417L117.237 56.9597C116.897 56.5971 116.506 56.3251 116.064 56.1437C115.633 55.9511 115.186 55.8547 114.721 55.8547C114.143 55.8547 113.616 56.0021 113.14 56.2967C112.675 56.5801 112.301 56.9711 112.018 57.4697C111.746 57.9571 111.61 58.5067 111.61 59.1187C111.61 59.7307 111.746 60.2861 112.018 60.7847C112.301 61.2834 112.681 61.6801 113.157 61.9747C113.633 62.2581 114.16 62.3997 114.738 62.3997C115.203 62.3997 115.639 62.3091 116.047 62.1277C116.466 61.9464 116.857 61.6801 117.22 61.3287L118.002 62.1787C117.549 62.6094 117.039 62.9437 116.472 63.1817C115.905 63.4197 115.316 63.5387 114.704 63.5387ZM122.315 63.5557C121.669 63.5557 121.096 63.4197 120.598 63.1477C120.099 62.8644 119.708 62.4791 119.425 61.9917C119.153 61.4931 119.017 60.9151 119.017 60.2577V54.8687H120.258V60.0027C120.258 60.7621 120.473 61.3627 120.904 61.8047C121.334 62.2354 121.912 62.4507 122.638 62.4507C123.148 62.4507 123.601 62.3374 123.998 62.1107C124.406 61.8727 124.734 61.5441 124.984 61.1247V54.8687H126.242V63.3857H124.984V62.3997C124.315 63.1704 123.425 63.5557 122.315 63.5557ZM131.305 63.5557C130.568 63.5557 130.001 63.3801 129.605 63.0287C129.208 62.6774 129.01 62.1674 129.01 61.4987V55.9397H127.174V54.8687H129.01V52.7097L130.251 52.3867V54.8687H132.818V55.9397H130.251V61.1757C130.251 61.6291 130.353 61.9577 130.557 62.1617C130.761 62.3544 131.095 62.4507 131.56 62.4507C131.798 62.4507 132.007 62.4337 132.189 62.3997C132.381 62.3657 132.585 62.3091 132.801 62.2297V63.3347C132.585 63.4141 132.342 63.4707 132.07 63.5047C131.809 63.5387 131.554 63.5557 131.305 63.5557ZM133.74 63.3857V54.8687H134.998V63.3857H133.74ZM134.369 53.2367C134.142 53.2367 133.944 53.1517 133.774 52.9817C133.604 52.8117 133.519 52.6134 133.519 52.3867C133.519 52.1487 133.604 51.9504 133.774 51.7917C133.944 51.6217 134.142 51.5367 134.369 51.5367C134.607 51.5367 134.805 51.6217 134.964 51.7917C135.134 51.9504 135.219 52.1487 135.219 52.3867C135.219 52.6134 135.134 52.8117 134.964 52.9817C134.805 53.1517 134.607 53.2367 134.369 53.2367ZM139.421 63.3857L135.732 54.8687H137.126L140.033 61.7537L142.94 54.8687H144.283L140.611 63.3857H139.421ZM148.721 63.5557C147.916 63.5557 147.18 63.3631 146.511 62.9777C145.854 62.5811 145.332 62.0484 144.947 61.3797C144.562 60.7111 144.369 59.9631 144.369 59.1357C144.369 58.3084 144.562 57.5604 144.947 56.8917C145.332 56.2231 145.854 55.6961 146.511 55.3107C147.18 54.9141 147.916 54.7157 148.721 54.7157C149.537 54.7157 150.274 54.9141 150.931 55.3107C151.588 55.6961 152.11 56.2231 152.495 56.8917C152.88 57.5604 153.073 58.3084 153.073 59.1357C153.073 59.9631 152.88 60.7111 152.495 61.3797C152.11 62.0484 151.588 62.5811 150.931 62.9777C150.274 63.3631 149.537 63.5557 148.721 63.5557ZM148.721 62.4337C149.299 62.4337 149.82 62.2864 150.285 61.9917C150.761 61.6971 151.135 61.3004 151.407 60.8017C151.69 60.3031 151.832 59.7477 151.832 59.1357C151.832 58.5124 151.69 57.9571 151.407 57.4697C151.135 56.9711 150.761 56.5744 150.285 56.2797C149.82 55.9851 149.299 55.8377 148.721 55.8377C148.143 55.8377 147.616 55.9851 147.14 56.2797C146.675 56.5744 146.301 56.9711 146.018 57.4697C145.746 57.9571 145.61 58.5124 145.61 59.1357C145.61 59.7477 145.746 60.3031 146.018 60.8017C146.301 61.3004 146.675 61.6971 147.14 61.9917C147.616 62.2864 148.143 62.4337 148.721 62.4337ZM161.516 63.5217C160.722 63.5217 159.997 63.3291 159.34 62.9437C158.694 62.5471 158.178 62.0201 157.793 61.3627C157.419 60.6941 157.232 59.9461 157.232 59.1187C157.232 58.2914 157.419 57.5491 157.793 56.8917C158.178 56.2344 158.694 55.7131 159.34 55.3277C159.997 54.9311 160.728 54.7327 161.533 54.7327C162.031 54.7327 162.513 54.8177 162.978 54.9877C163.442 55.1464 163.867 55.3844 164.253 55.7017V51.4857L165.511 51.1967V63.3857H164.27V62.4847C163.522 63.1761 162.604 63.5217 161.516 63.5217ZM161.635 62.4167C162.167 62.4167 162.66 62.3147 163.114 62.1107C163.578 61.8954 163.958 61.6007 164.253 61.2267V57.0107C163.958 56.6481 163.578 56.3647 163.114 56.1607C162.66 55.9454 162.167 55.8377 161.635 55.8377C161.045 55.8377 160.507 55.9794 160.02 56.2627C159.544 56.5461 159.164 56.9371 158.881 57.4357C158.609 57.9231 158.473 58.4784 158.473 59.1017C158.473 59.7251 158.609 60.2861 158.881 60.7847C159.164 61.2834 159.544 61.6801 160.02 61.9747C160.507 62.2694 161.045 62.4167 161.635 62.4167ZM171.22 63.5387C170.404 63.5387 169.662 63.3461 168.993 62.9607C168.336 62.5641 167.809 62.0314 167.412 61.3627C167.027 60.6941 166.834 59.9461 166.834 59.1187C166.834 58.3027 167.021 57.5661 167.395 56.9087C167.769 56.2401 168.273 55.7131 168.908 55.3277C169.543 54.9311 170.251 54.7327 171.033 54.7327C171.792 54.7327 172.472 54.9311 173.073 55.3277C173.685 55.7131 174.167 56.2401 174.518 56.9087C174.881 57.5661 175.062 58.3027 175.062 59.1187V59.5097H168.075C168.143 60.0651 168.319 60.5637 168.602 61.0057C168.897 61.4477 169.276 61.7991 169.741 62.0597C170.206 62.3091 170.716 62.4337 171.271 62.4337C171.713 62.4337 172.144 62.3657 172.563 62.2297C172.982 62.0937 173.334 61.9011 173.617 61.6517L174.399 62.4847C173.923 62.8361 173.424 63.1024 172.903 63.2837C172.393 63.4537 171.832 63.5387 171.22 63.5387ZM168.109 58.5067H173.804C173.736 57.9967 173.566 57.5434 173.294 57.1467C173.033 56.7387 172.705 56.4214 172.308 56.1947C171.911 55.9567 171.475 55.8377 170.999 55.8377C170.512 55.8377 170.064 55.9511 169.656 56.1777C169.248 56.4044 168.908 56.7217 168.636 57.1297C168.364 57.5264 168.188 57.9854 168.109 58.5067ZM179.861 63.3857V51.4857H181.17L188.327 61.1417V51.4857H189.568V63.3857H188.412L181.102 53.4747V63.3857H179.861ZM195.512 63.5387C194.696 63.5387 193.953 63.3461 193.285 62.9607C192.627 62.5641 192.1 62.0314 191.704 61.3627C191.318 60.6941 191.126 59.9461 191.126 59.1187C191.126 58.3027 191.313 57.5661 191.687 56.9087C192.061 56.2401 192.565 55.7131 193.2 55.3277C193.834 54.9311 194.543 54.7327 195.325 54.7327C196.084 54.7327 196.764 54.9311 197.365 55.3277C197.977 55.7131 198.458 56.2401 198.81 56.9087C199.172 57.5661 199.354 58.3027 199.354 59.1187V59.5097H192.367C192.435 60.0651 192.61 60.5637 192.894 61.0057C193.188 61.4477 193.568 61.7991 194.033 62.0597C194.497 62.3091 195.007 62.4337 195.563 62.4337C196.005 62.4337 196.435 62.3657 196.855 62.2297C197.274 62.0937 197.625 61.9011 197.909 61.6517L198.691 62.4847C198.215 62.8361 197.716 63.1024 197.195 63.2837C196.685 63.4537 196.124 63.5387 195.512 63.5387ZM192.401 58.5067H198.096C198.028 57.9967 197.858 57.5434 197.586 57.1467C197.325 56.7387 196.996 56.4214 196.6 56.1947C196.203 55.9567 195.767 55.8377 195.291 55.8377C194.803 55.8377 194.356 55.9511 193.948 56.1777C193.54 56.4044 193.2 56.7217 192.928 57.1297C192.656 57.5264 192.48 57.9854 192.401 58.5067ZM204.835 67.0237C204.246 67.0237 203.662 66.9444 203.084 66.7857C202.506 66.6384 201.979 66.4231 201.503 66.1397L202.047 65.1537C202.557 65.4257 203.028 65.6241 203.458 65.7487C203.9 65.8734 204.342 65.9357 204.784 65.9357C205.589 65.9357 206.201 65.7431 206.62 65.3577C207.04 64.9724 207.249 64.4057 207.249 63.6577V62.4677C206.467 63.1251 205.566 63.4537 204.546 63.4537C203.764 63.4537 203.05 63.2611 202.404 62.8757C201.758 62.4904 201.243 61.9691 200.857 61.3117C200.483 60.6431 200.296 59.9007 200.296 59.0847C200.296 58.2687 200.483 57.5321 200.857 56.8747C201.243 56.2061 201.758 55.6791 202.404 55.2937C203.05 54.9084 203.776 54.7157 204.58 54.7157C205.068 54.7157 205.538 54.8007 205.991 54.9707C206.456 55.1407 206.881 55.3901 207.266 55.7187V54.8687H208.507V63.6407C208.507 64.7287 208.19 65.5617 207.555 66.1397C206.921 66.7291 206.014 67.0237 204.835 67.0237ZM204.648 62.3487C205.192 62.3487 205.691 62.2467 206.144 62.0427C206.598 61.8387 206.966 61.5497 207.249 61.1757V56.9937C206.966 56.6311 206.592 56.3477 206.127 56.1437C205.674 55.9397 205.181 55.8377 204.648 55.8377C204.059 55.8377 203.526 55.9794 203.05 56.2627C202.586 56.5461 202.217 56.9371 201.945 57.4357C201.673 57.9231 201.537 58.4727 201.537 59.0847C201.537 59.6967 201.673 60.2521 201.945 60.7507C202.229 61.2381 202.603 61.6291 203.067 61.9237C203.543 62.2071 204.07 62.3487 204.648 62.3487ZM214.184 63.5557C213.379 63.5557 212.643 63.3631 211.974 62.9777C211.317 62.5811 210.795 62.0484 210.41 61.3797C210.025 60.7111 209.832 59.9631 209.832 59.1357C209.832 58.3084 210.025 57.5604 210.41 56.8917C210.795 56.2231 211.317 55.6961 211.974 55.3107C212.643 54.9141 213.379 54.7157 214.184 54.7157C215 54.7157 215.737 54.9141 216.394 55.3107C217.051 55.6961 217.573 56.2231 217.958 56.8917C218.343 57.5604 218.536 58.3084 218.536 59.1357C218.536 59.9631 218.343 60.7111 217.958 61.3797C217.573 62.0484 217.051 62.5811 216.394 62.9777C215.737 63.3631 215 63.5557 214.184 63.5557ZM214.184 62.4337C214.762 62.4337 215.283 62.2864 215.748 61.9917C216.224 61.6971 216.598 61.3004 216.87 60.8017C217.153 60.3031 217.295 59.7477 217.295 59.1357C217.295 58.5124 217.153 57.9571 216.87 57.4697C216.598 56.9711 216.224 56.5744 215.748 56.2797C215.283 55.9851 214.762 55.8377 214.184 55.8377C213.606 55.8377 213.079 55.9851 212.603 56.2797C212.138 56.5744 211.764 56.9711 211.481 57.4697C211.209 57.9571 211.073 58.5124 211.073 59.1357C211.073 59.7477 211.209 60.3031 211.481 60.8017C211.764 61.3004 212.138 61.6971 212.603 61.9917C213.079 62.2864 213.606 62.4337 214.184 62.4337ZM213.096 53.1857L214.694 51.2137H216.309L214.201 53.1857H213.096ZM223.803 63.5387C222.998 63.5387 222.267 63.3461 221.61 62.9607C220.952 62.5641 220.431 62.0314 220.046 61.3627C219.66 60.6941 219.468 59.9461 219.468 59.1187C219.468 58.2914 219.66 57.5491 220.046 56.8917C220.431 56.2231 220.952 55.6904 221.61 55.2937C222.267 54.8971 222.998 54.6987 223.803 54.6987C224.426 54.6987 225.027 54.8177 225.605 55.0557C226.183 55.2824 226.693 55.6111 227.135 56.0417L226.336 56.9597C225.996 56.5971 225.605 56.3251 225.163 56.1437C224.732 55.9511 224.284 55.8547 223.82 55.8547C223.242 55.8547 222.715 56.0021 222.239 56.2967C221.774 56.5801 221.4 56.9711 221.117 57.4697C220.845 57.9571 220.709 58.5067 220.709 59.1187C220.709 59.7307 220.845 60.2861 221.117 60.7847C221.4 61.2834 221.78 61.6801 222.256 61.9747C222.732 62.2581 223.259 62.3997 223.837 62.3997C224.301 62.3997 224.738 62.3091 225.146 62.1277C225.565 61.9464 225.956 61.6801 226.319 61.3287L227.101 62.1787C226.647 62.6094 226.137 62.9437 225.571 63.1817C225.004 63.4197 224.415 63.5387 223.803 63.5387ZM228.15 63.3857V54.8687H229.408V63.3857H228.15ZM228.779 53.2367C228.552 53.2367 228.354 53.1517 228.184 52.9817C228.014 52.8117 227.929 52.6134 227.929 52.3867C227.929 52.1487 228.014 51.9504 228.184 51.7917C228.354 51.6217 228.552 51.5367 228.779 51.5367C229.017 51.5367 229.215 51.6217 229.374 51.7917C229.544 51.9504 229.629 52.1487 229.629 52.3867C229.629 52.6134 229.544 52.8117 229.374 52.9817C229.215 53.1517 229.017 53.2367 228.779 53.2367ZM235.089 63.5557C234.284 63.5557 233.548 63.3631 232.879 62.9777C232.222 62.5811 231.7 62.0484 231.315 61.3797C230.93 60.7111 230.737 59.9631 230.737 59.1357C230.737 58.3084 230.93 57.5604 231.315 56.8917C231.7 56.2231 232.222 55.6961 232.879 55.3107C233.548 54.9141 234.284 54.7157 235.089 54.7157C235.905 54.7157 236.642 54.9141 237.299 55.3107C237.956 55.6961 238.478 56.2231 238.863 56.8917C239.248 57.5604 239.441 58.3084 239.441 59.1357C239.441 59.9631 239.248 60.7111 238.863 61.3797C238.478 62.0484 237.956 62.5811 237.299 62.9777C236.642 63.3631 235.905 63.5557 235.089 63.5557ZM235.089 62.4337C235.667 62.4337 236.188 62.2864 236.653 61.9917C237.129 61.6971 237.503 61.3004 237.775 60.8017C238.058 60.3031 238.2 59.7477 238.2 59.1357C238.2 58.5124 238.058 57.9571 237.775 57.4697C237.503 56.9711 237.129 56.5744 236.653 56.2797C236.188 55.9851 235.667 55.8377 235.089 55.8377C234.511 55.8377 233.984 55.9851 233.508 56.2797C233.043 56.5744 232.669 56.9711 232.386 57.4697C232.114 57.9571 231.978 58.5124 231.978 59.1357C231.978 59.7477 232.114 60.3031 232.386 60.8017C232.669 61.3004 233.043 61.6971 233.508 61.9917C233.984 62.2864 234.511 62.4337 235.089 62.4337ZM243.483 63.5557C242.781 63.5557 242.118 63.4424 241.494 63.2157C240.882 62.9777 240.35 62.6491 239.896 62.2297L240.661 61.4137C241.058 61.7764 241.494 62.0597 241.97 62.2637C242.446 62.4564 242.934 62.5527 243.432 62.5527C244.112 62.5527 244.668 62.4111 245.098 62.1277C245.529 61.8444 245.744 61.4761 245.744 61.0227C245.744 60.6487 245.614 60.3597 245.353 60.1557C245.104 59.9404 244.707 59.7931 244.163 59.7137L242.684 59.5097C241.834 59.3851 241.2 59.1301 240.78 58.7447C240.372 58.3594 240.168 57.8381 240.168 57.1807C240.168 56.7047 240.304 56.2797 240.576 55.9057C240.848 55.5317 241.222 55.2371 241.698 55.0217C242.186 54.8064 242.741 54.6987 243.364 54.6987C243.988 54.6987 244.571 54.7894 245.115 54.9707C245.659 55.1521 246.192 55.4354 246.713 55.8207L246.05 56.6707C245.574 56.3421 245.11 56.1041 244.656 55.9567C244.214 55.7981 243.761 55.7187 243.296 55.7187C242.707 55.7187 242.231 55.8491 241.868 56.1097C241.506 56.3704 241.324 56.7104 241.324 57.1297C241.324 57.5151 241.449 57.8097 241.698 58.0137C241.948 58.2064 242.35 58.3424 242.905 58.4217L244.384 58.6257C245.234 58.7391 245.869 58.9884 246.288 59.3737C246.719 59.7591 246.934 60.2861 246.934 60.9547C246.934 61.4421 246.781 61.8841 246.475 62.2807C246.169 62.6774 245.756 62.9891 245.234 63.2157C244.724 63.4424 244.141 63.5557 243.483 63.5557Z" fill="#58585A"/>
<path fill-rule="evenodd" clip-rule="evenodd" d="M15.9199 20.7906H16.0903V20.6084H1.38619V20.7551L1.37273 20.7222L1.20239 20.7906L20.7699 68.6507L20.6987 68.8252L20.8691 68.8934L21.0395 68.825L20.9682 68.6506L27.8536 51.7659L28.0249 51.7L15.9199 20.7906ZM16.0903 20.6084L1.40072 20.7906L20.8689 68.4078L27.6832 51.6976L27.8536 51.7659L16.0903 20.6084Z" fill="#58585A"/>
<path d="M16.0903 20.6084L1.40072 20.7906L20.8689 68.4078L27.6832 51.6976L27.8536 51.7659L16.0903 20.6084Z" fill="#58585A"/>
<path fill-rule="evenodd" clip-rule="evenodd" d="M52.9454 19.8657H67.7903L46.7947 71.5555L38.9643 51.7733L24.8803 16.8906L33.7595 0L46.841 35.9384L52.9454 19.8657ZM52.9454 19.8657H67.7903L46.7947 71.5555L24.8803 16.8906L33.7595 0L46.841 35.9384L52.9454 19.8657Z" fill="#58585A"/>
<path d="M52.9454 19.8657H67.7903L46.7947 71.5555L24.8803 16.8906L33.7595 0L46.841 35.9384L52.9454 19.8657Z" fill="#58585A"/>
<path fill-rule="evenodd" clip-rule="evenodd" d="M14.7175 23.6363H14.8879V23.4541H0.183801V23.6008L0.170342 23.5679L0 23.6363L19.5675 71.4964L19.4963 71.6709L19.6667 71.7392L19.8371 71.6707L19.7658 71.4963L26.6512 54.6116L26.8225 54.5457L14.7175 23.6363ZM14.8879 23.4541L0.198324 23.6363L19.6665 71.2535L26.4808 54.5433L26.6512 54.6116L14.8879 23.4541Z" fill="#DA051F"/>
<path d="M14.8879 23.4541L0.198324 23.6363L19.6665 71.2535L26.4808 54.5433L26.6512 54.6116L14.8879 23.4541Z" fill="#DA051F"/>
<path fill-rule="evenodd" clip-rule="evenodd" d="M49.0488 23.6593L63.5433 23.4771V23.6238L63.5567 23.5908L63.7266 23.6593L44.1128 71.5096L37.1472 54.6198L23.2153 20.0168L31.8308 3.62598L43.9429 36.4077L49.0488 23.6593ZM49.0488 23.6593H63.5288L44.113 71.2537L23.2153 20.0168L31.8308 3.62598L43.9429 36.4077L49.0488 23.6593Z" fill="#DA051F"/>
<path d="M49.0488 23.6593H63.5288L44.113 71.2537L23.2153 20.0168L31.8308 3.62598L43.9429 36.4077L49.0488 23.6593Z" fill="#DA051F"/>
</svg>
