<svg width="456" height="124" viewBox="0 0 456 124" fill="none" xmlns="http://www.w3.org/2000/svg">
<path d="M142.676 82.8442L134.926 47.8442H142.376L147.126 71.5442L153.926 47.8442H160.776L167.576 71.4942L172.326 47.8442H179.526L171.826 82.8442H164.176L157.276 58.4442L150.276 82.8442H142.676ZM182.293 82.8442V56.7942H189.143V82.8442H182.293ZM185.693 53.6942C184.627 53.6942 183.71 53.3109 182.943 52.5442C182.177 51.7776 181.793 50.8609 181.793 49.7942C181.793 48.6942 182.177 47.7776 182.943 47.0442C183.71 46.2776 184.627 45.8942 185.693 45.8942C186.793 45.8942 187.71 46.2776 188.443 47.0442C189.21 47.7776 189.593 48.6942 189.593 49.7942C189.593 50.8609 189.21 51.7776 188.443 52.5442C187.71 53.3109 186.793 53.6942 185.693 53.6942ZM193.25 82.8442V47.8442L200.1 46.6942V82.8442H193.25ZM213.957 83.3442C211.557 83.3442 209.341 83.0442 207.307 82.4442C205.274 81.8109 203.507 80.9109 202.007 79.7442L205.407 75.1942C206.907 76.1942 208.341 76.9442 209.707 77.4442C211.107 77.9442 212.491 78.1942 213.857 78.1942C215.391 78.1942 216.607 77.9442 217.507 77.4442C218.441 76.9109 218.907 76.2276 218.907 75.3942C218.907 74.7276 218.641 74.1942 218.107 73.7942C217.607 73.3942 216.791 73.1109 215.657 72.9442L210.657 72.1942C208.057 71.7942 206.091 70.9609 204.757 69.6942C203.424 68.3942 202.757 66.6942 202.757 64.5942C202.757 62.8942 203.191 61.4442 204.057 60.2442C204.957 59.0109 206.207 58.0609 207.807 57.3942C209.441 56.6942 211.374 56.3442 213.607 56.3442C215.507 56.3442 217.357 56.6109 219.157 57.1442C220.991 57.6776 222.707 58.4942 224.307 59.5942L221.007 64.0442C219.574 63.1442 218.207 62.4942 216.907 62.0942C215.607 61.6942 214.291 61.4942 212.957 61.4942C211.724 61.4942 210.724 61.7276 209.957 62.1942C209.224 62.6609 208.857 63.2776 208.857 64.0442C208.857 64.7442 209.124 65.2942 209.657 65.6942C210.191 66.0942 211.107 66.3776 212.407 66.5442L217.357 67.2942C219.957 67.6609 221.941 68.4942 223.307 69.7942C224.674 71.0609 225.357 72.7109 225.357 74.7442C225.357 76.4109 224.857 77.8942 223.857 79.1942C222.857 80.4609 221.507 81.4776 219.807 82.2442C218.107 82.9776 216.157 83.3442 213.957 83.3442ZM240.462 83.3442C237.862 83.3442 235.512 82.7442 233.412 81.5442C231.312 80.3442 229.645 78.7276 228.412 76.6942C227.179 74.6609 226.562 72.3776 226.562 69.8442C226.562 67.3109 227.162 65.0276 228.362 62.9942C229.595 60.9276 231.262 59.2942 233.362 58.0942C235.495 56.8942 237.862 56.2942 240.462 56.2942C243.062 56.2942 245.412 56.8942 247.512 58.0942C249.645 59.2942 251.312 60.9276 252.512 62.9942C253.745 65.0276 254.362 67.3109 254.362 69.8442C254.362 72.3776 253.745 74.6609 252.512 76.6942C251.312 78.7276 249.662 80.3442 247.562 81.5442C245.462 82.7442 243.095 83.3442 240.462 83.3442ZM240.462 77.3942C241.829 77.3942 243.045 77.0609 244.112 76.3942C245.212 75.7276 246.079 74.8276 246.712 73.6942C247.379 72.5276 247.712 71.2442 247.712 69.8442C247.712 68.4109 247.379 67.1276 246.712 65.9942C246.079 64.8609 245.212 63.9609 244.112 63.2942C243.045 62.5942 241.829 62.2442 240.462 62.2442C239.129 62.2442 237.912 62.5942 236.812 63.2942C235.712 63.9609 234.845 64.8609 234.212 65.9942C233.579 67.1276 233.262 68.4109 233.262 69.8442C233.262 71.2442 233.579 72.5276 234.212 73.6942C234.845 74.8276 235.712 75.7276 236.812 76.3942C237.912 77.0609 239.129 77.3942 240.462 77.3942ZM257.323 82.8442V56.7942H264.173V58.9442C266.139 57.1776 268.573 56.2942 271.473 56.2942C273.506 56.2942 275.289 56.7442 276.823 57.6442C278.389 58.5109 279.606 59.7276 280.473 61.2942C281.339 62.8276 281.773 64.6276 281.773 66.6942V82.8442H274.923V67.6942C274.923 65.9942 274.439 64.6609 273.473 63.6942C272.506 62.6942 271.189 62.1942 269.523 62.1942C268.356 62.1942 267.323 62.4276 266.423 62.8942C265.523 63.3276 264.773 63.9609 264.173 64.7942V82.8442H257.323ZM294.97 82.8442V47.8442H311.42C313.786 47.8442 315.853 48.2442 317.62 49.0442C319.386 49.8442 320.77 50.9776 321.77 52.4442C322.77 53.8776 323.27 55.5442 323.27 57.4442C323.27 58.9776 322.87 60.3942 322.07 61.6942C321.303 62.9609 320.253 63.9942 318.92 64.7942C320.62 65.5942 321.97 66.6776 322.97 68.0442C323.97 69.4109 324.47 70.9609 324.47 72.6942C324.47 74.6942 323.953 76.4609 322.92 77.9942C321.92 79.5276 320.486 80.7276 318.62 81.5942C316.786 82.4276 314.653 82.8442 312.22 82.8442H294.97ZM302.22 62.1442H310.97C312.536 62.1442 313.77 61.7776 314.67 61.0442C315.603 60.2776 316.07 59.2609 316.07 57.9942C316.07 56.7276 315.603 55.7276 314.67 54.9942C313.77 54.2276 312.536 53.8442 310.97 53.8442H302.22V62.1442ZM302.22 76.8442H311.67C313.336 76.8442 314.67 76.4442 315.67 75.6442C316.67 74.8109 317.17 73.7109 317.17 72.3442C317.17 70.9442 316.67 69.8442 315.67 69.0442C314.67 68.2109 313.336 67.7942 311.67 67.7942H302.22V76.8442ZM337.452 83.3442C335.452 83.3442 333.669 82.9109 332.102 82.0442C330.569 81.1442 329.352 79.9109 328.452 78.3442C327.585 76.7776 327.152 74.9776 327.152 72.9442V56.7942H334.002V71.9442C334.002 73.6109 334.485 74.9442 335.452 75.9442C336.452 76.9442 337.785 77.4442 339.452 77.4442C340.585 77.4442 341.602 77.2276 342.502 76.7942C343.435 76.3276 344.202 75.6776 344.802 74.8442V56.7942H351.652V82.8442H344.802V80.7442C342.802 82.4776 340.352 83.3442 337.452 83.3442ZM368.491 83.3442C365.891 83.3442 363.524 82.7442 361.391 81.5442C359.291 80.3442 357.624 78.7276 356.391 76.6942C355.157 74.6609 354.541 72.3776 354.541 69.8442C354.541 67.3109 355.124 65.0276 356.291 62.9942C357.491 60.9609 359.107 59.3442 361.141 58.1442C363.174 56.9442 365.441 56.3442 367.941 56.3442C370.441 56.3442 372.657 56.9609 374.591 58.1942C376.524 59.4276 378.041 61.0942 379.141 63.1942C380.274 65.2942 380.841 67.6776 380.841 70.3442V72.1442H361.541C361.841 73.1776 362.324 74.1109 362.991 74.9442C363.691 75.7776 364.541 76.4276 365.541 76.8942C366.574 77.3609 367.674 77.5942 368.841 77.5942C370.007 77.5942 371.074 77.4109 372.041 77.0442C373.041 76.6776 373.891 76.1609 374.591 75.4942L379.091 79.5942C377.491 80.8942 375.841 81.8442 374.141 82.4442C372.474 83.0442 370.591 83.3442 368.491 83.3442ZM361.441 67.2442H374.091C373.857 66.2109 373.424 65.3109 372.791 64.5442C372.191 63.7442 371.457 63.1276 370.591 62.6942C369.757 62.2276 368.824 61.9942 367.791 61.9942C366.724 61.9942 365.757 62.2109 364.891 62.6442C364.024 63.0776 363.291 63.6942 362.691 64.4942C362.124 65.2609 361.707 66.1776 361.441 67.2442ZM383.787 82.8442V56.7942H390.637V58.9442C392.604 57.1776 395.037 56.2942 397.937 56.2942C399.971 56.2942 401.754 56.7442 403.287 57.6442C404.854 58.5109 406.071 59.7276 406.937 61.2942C407.804 62.8276 408.237 64.6276 408.237 66.6942V82.8442H401.387V67.6942C401.387 65.9942 400.904 64.6609 399.937 63.6942C398.971 62.6942 397.654 62.1942 395.987 62.1942C394.821 62.1942 393.787 62.4276 392.887 62.8942C391.987 63.3276 391.237 63.9609 390.637 64.7942V82.8442H383.787ZM424.876 83.3442C422.276 83.3442 419.926 82.7442 417.826 81.5442C415.726 80.3442 414.059 78.7276 412.826 76.6942C411.593 74.6609 410.976 72.3776 410.976 69.8442C410.976 67.3109 411.576 65.0276 412.776 62.9942C414.009 60.9276 415.676 59.2942 417.776 58.0942C419.909 56.8942 422.276 56.2942 424.876 56.2942C427.476 56.2942 429.826 56.8942 431.926 58.0942C434.059 59.2942 435.726 60.9276 436.926 62.9942C438.159 65.0276 438.776 67.3109 438.776 69.8442C438.776 72.3776 438.159 74.6609 436.926 76.6942C435.726 78.7276 434.076 80.3442 431.976 81.5442C429.876 82.7442 427.509 83.3442 424.876 83.3442ZM424.876 77.3942C426.243 77.3942 427.459 77.0609 428.526 76.3942C429.626 75.7276 430.493 74.8276 431.126 73.6942C431.793 72.5276 432.126 71.2442 432.126 69.8442C432.126 68.4109 431.793 67.1276 431.126 65.9942C430.493 64.8609 429.626 63.9609 428.526 63.2942C427.459 62.5942 426.243 62.2442 424.876 62.2442C423.543 62.2442 422.326 62.5942 421.226 63.2942C420.126 63.9609 419.259 64.8609 418.626 65.9942C417.993 67.1276 417.676 68.4109 417.676 69.8442C417.676 71.2442 417.993 72.5276 418.626 73.6942C419.259 74.8276 420.126 75.7276 421.226 76.3942C422.326 77.0609 423.543 77.3942 424.876 77.3942Z" fill="white"/>
<path d="M140.996 114.28V97.4798H153.02V99.1118H142.844V104.992H149.492V106.6H142.844V112.648H153.116V114.28H140.996ZM153.457 114.28L158.185 108.088L153.697 102.256H155.809L159.217 106.768L162.626 102.256H164.666L160.225 108.064L164.977 114.28H162.865L159.194 109.384L155.473 114.28H153.457ZM170.6 114.496C169.448 114.496 168.4 114.224 167.456 113.68C166.528 113.12 165.784 112.368 165.224 111.424C164.68 110.48 164.408 109.424 164.408 108.256C164.408 107.104 164.672 106.064 165.2 105.136C165.728 104.192 166.44 103.448 167.336 102.904C168.232 102.344 169.232 102.064 170.336 102.064C171.408 102.064 172.368 102.344 173.216 102.904C174.08 103.448 174.76 104.192 175.256 105.136C175.768 106.064 176.024 107.104 176.024 108.256V108.808H166.16C166.256 109.592 166.504 110.296 166.904 110.92C167.32 111.544 167.856 112.04 168.512 112.408C169.168 112.76 169.888 112.936 170.672 112.936C171.296 112.936 171.904 112.84 172.496 112.648C173.088 112.456 173.584 112.184 173.984 111.832L175.088 113.008C174.416 113.504 173.712 113.88 172.976 114.136C172.256 114.376 171.464 114.496 170.6 114.496ZM166.208 107.392H174.248C174.152 106.672 173.912 106.032 173.528 105.472C173.16 104.896 172.696 104.448 172.136 104.128C171.576 103.792 170.96 103.624 170.288 103.624C169.6 103.624 168.968 103.784 168.392 104.104C167.816 104.424 167.336 104.872 166.952 105.448C166.568 106.008 166.32 106.656 166.208 107.392ZM183.475 114.496C182.339 114.496 181.307 114.224 180.379 113.68C179.451 113.12 178.715 112.368 178.171 111.424C177.627 110.48 177.355 109.424 177.355 108.256C177.355 107.088 177.627 106.04 178.171 105.112C178.715 104.168 179.451 103.416 180.379 102.856C181.307 102.296 182.339 102.016 183.475 102.016C184.355 102.016 185.203 102.184 186.019 102.52C186.835 102.84 187.555 103.304 188.179 103.912L187.051 105.208C186.571 104.696 186.019 104.312 185.395 104.056C184.787 103.784 184.155 103.648 183.499 103.648C182.683 103.648 181.939 103.856 181.267 104.272C180.611 104.672 180.083 105.224 179.683 105.928C179.299 106.616 179.107 107.392 179.107 108.256C179.107 109.12 179.299 109.904 179.683 110.608C180.083 111.312 180.619 111.872 181.291 112.288C181.963 112.688 182.707 112.888 183.523 112.888C184.179 112.888 184.795 112.76 185.371 112.504C185.963 112.248 186.515 111.872 187.027 111.376L188.131 112.576C187.491 113.184 186.771 113.656 185.971 113.992C185.171 114.328 184.339 114.496 183.475 114.496ZM194.22 114.52C193.308 114.52 192.5 114.328 191.796 113.944C191.092 113.544 190.54 113 190.14 112.312C189.756 111.608 189.564 110.792 189.564 109.864V102.256H191.316V109.504C191.316 110.576 191.62 111.424 192.228 112.048C192.836 112.656 193.652 112.96 194.676 112.96C195.396 112.96 196.036 112.8 196.596 112.48C197.172 112.144 197.636 111.68 197.988 111.088V102.256H199.764V114.28H197.988V112.888C197.044 113.976 195.788 114.52 194.22 114.52ZM206.912 114.52C205.872 114.52 205.072 114.272 204.512 113.776C203.952 113.28 203.672 112.56 203.672 111.616V103.768H201.08V102.256H203.672V99.2078L205.424 98.7518V102.256H209.048V103.768H205.424V111.16C205.424 111.8 205.568 112.264 205.856 112.552C206.144 112.824 206.616 112.96 207.272 112.96C207.608 112.96 207.904 112.936 208.16 112.888C208.432 112.84 208.72 112.76 209.024 112.648V114.208C208.72 114.32 208.376 114.4 207.992 114.448C207.624 114.496 207.264 114.52 206.912 114.52ZM210.35 114.28V102.256H212.126V114.28H210.35ZM211.238 99.9518C210.918 99.9518 210.638 99.8318 210.398 99.5918C210.158 99.3518 210.038 99.0718 210.038 98.7518C210.038 98.4158 210.158 98.1358 210.398 97.9118C210.638 97.6718 210.918 97.5518 211.238 97.5518C211.574 97.5518 211.854 97.6718 212.078 97.9118C212.318 98.1358 212.438 98.4158 212.438 98.7518C212.438 99.0718 212.318 99.3518 212.078 99.5918C211.854 99.8318 211.574 99.9518 211.238 99.9518ZM218.37 114.28L213.162 102.256H215.13L219.234 111.976L223.338 102.256H225.234L220.05 114.28H218.37ZM231.499 114.52C230.363 114.52 229.323 114.248 228.379 113.704C227.451 113.144 226.715 112.392 226.171 111.448C225.627 110.504 225.355 109.448 225.355 108.28C225.355 107.112 225.627 106.056 226.171 105.112C226.715 104.168 227.451 103.424 228.379 102.88C229.323 102.32 230.363 102.04 231.499 102.04C232.651 102.04 233.691 102.32 234.619 102.88C235.547 103.424 236.283 104.168 236.827 105.112C237.371 106.056 237.643 107.112 237.643 108.28C237.643 109.448 237.371 110.504 236.827 111.448C236.283 112.392 235.547 113.144 234.619 113.704C233.691 114.248 232.651 114.52 231.499 114.52ZM231.499 112.936C232.315 112.936 233.051 112.728 233.707 112.312C234.379 111.896 234.907 111.336 235.291 110.632C235.691 109.928 235.891 109.144 235.891 108.28C235.891 107.4 235.691 106.616 235.291 105.928C234.907 105.224 234.379 104.664 233.707 104.248C233.051 103.832 232.315 103.624 231.499 103.624C230.683 103.624 229.939 103.832 229.267 104.248C228.611 104.664 228.083 105.224 227.683 105.928C227.299 106.616 227.107 107.4 227.107 108.28C227.107 109.144 227.299 109.928 227.683 110.632C228.083 111.336 228.611 111.896 229.267 112.312C229.939 112.728 230.683 112.936 231.499 112.936ZM249.563 114.472C248.443 114.472 247.419 114.2 246.491 113.656C245.579 113.096 244.851 112.352 244.307 111.424C243.779 110.48 243.515 109.424 243.515 108.256C243.515 107.088 243.779 106.04 244.307 105.112C244.851 104.184 245.579 103.448 246.491 102.904C247.419 102.344 248.451 102.064 249.587 102.064C250.291 102.064 250.971 102.184 251.627 102.424C252.283 102.648 252.883 102.984 253.427 103.432V97.4798L255.203 97.0718V114.28H253.451V113.008C252.395 113.984 251.099 114.472 249.563 114.472ZM249.731 112.912C250.483 112.912 251.179 112.768 251.819 112.48C252.475 112.176 253.011 111.76 253.427 111.232V105.28C253.011 104.768 252.475 104.368 251.819 104.08C251.179 103.776 250.483 103.624 249.731 103.624C248.899 103.624 248.139 103.824 247.451 104.224C246.779 104.624 246.243 105.176 245.843 105.88C245.459 106.568 245.267 107.352 245.267 108.232C245.267 109.112 245.459 109.904 245.843 110.608C246.243 111.312 246.779 111.872 247.451 112.288C248.139 112.704 248.899 112.912 249.731 112.912ZM263.263 114.496C262.111 114.496 261.063 114.224 260.119 113.68C259.191 113.12 258.447 112.368 257.887 111.424C257.343 110.48 257.071 109.424 257.071 108.256C257.071 107.104 257.335 106.064 257.863 105.136C258.391 104.192 259.103 103.448 259.999 102.904C260.895 102.344 261.895 102.064 262.999 102.064C264.071 102.064 265.031 102.344 265.879 102.904C266.743 103.448 267.423 104.192 267.919 105.136C268.431 106.064 268.687 107.104 268.687 108.256V108.808H258.823C258.919 109.592 259.167 110.296 259.567 110.92C259.983 111.544 260.519 112.04 261.175 112.408C261.831 112.76 262.551 112.936 263.335 112.936C263.959 112.936 264.567 112.84 265.159 112.648C265.751 112.456 266.247 112.184 266.647 111.832L267.751 113.008C267.079 113.504 266.375 113.88 265.639 114.136C264.919 114.376 264.127 114.496 263.263 114.496ZM258.871 107.392H266.911C266.815 106.672 266.575 106.032 266.191 105.472C265.823 104.896 265.359 104.448 264.799 104.128C264.239 103.792 263.623 103.624 262.951 103.624C262.263 103.624 261.631 103.784 261.055 104.104C260.479 104.424 259.999 104.872 259.615 105.448C259.231 106.008 258.983 106.656 258.871 107.392ZM275.462 114.28V97.4798H277.31L287.414 111.112V97.4798H289.166V114.28H287.534L277.214 100.288V114.28H275.462ZM297.557 114.496C296.405 114.496 295.357 114.224 294.413 113.68C293.485 113.12 292.741 112.368 292.181 111.424C291.637 110.48 291.365 109.424 291.365 108.256C291.365 107.104 291.629 106.064 292.157 105.136C292.685 104.192 293.397 103.448 294.293 102.904C295.189 102.344 296.189 102.064 297.293 102.064C298.365 102.064 299.325 102.344 300.173 102.904C301.037 103.448 301.717 104.192 302.213 105.136C302.725 106.064 302.981 107.104 302.981 108.256V108.808H293.117C293.213 109.592 293.461 110.296 293.861 110.92C294.277 111.544 294.813 112.04 295.469 112.408C296.125 112.76 296.845 112.936 297.629 112.936C298.253 112.936 298.861 112.84 299.453 112.648C300.045 112.456 300.541 112.184 300.941 111.832L302.045 113.008C301.373 113.504 300.669 113.88 299.933 114.136C299.213 114.376 298.421 114.496 297.557 114.496ZM293.165 107.392H301.205C301.109 106.672 300.869 106.032 300.485 105.472C300.117 104.896 299.653 104.448 299.093 104.128C298.533 103.792 297.917 103.624 297.245 103.624C296.557 103.624 295.925 103.784 295.349 104.104C294.773 104.424 294.293 104.872 293.909 105.448C293.525 106.008 293.277 106.656 293.165 107.392ZM310.72 119.416C309.888 119.416 309.064 119.304 308.248 119.08C307.432 118.872 306.688 118.568 306.016 118.168L306.784 116.776C307.504 117.16 308.168 117.44 308.776 117.616C309.4 117.792 310.024 117.88 310.648 117.88C311.784 117.88 312.648 117.608 313.24 117.064C313.832 116.52 314.128 115.72 314.128 114.664V112.984C313.024 113.912 311.752 114.376 310.312 114.376C309.208 114.376 308.2 114.104 307.288 113.56C306.376 113.016 305.648 112.28 305.104 111.352C304.576 110.408 304.312 109.36 304.312 108.208C304.312 107.056 304.576 106.016 305.104 105.088C305.648 104.144 306.376 103.4 307.288 102.856C308.2 102.312 309.224 102.04 310.36 102.04C311.048 102.04 311.712 102.16 312.352 102.4C313.008 102.64 313.608 102.992 314.152 103.456V102.256H315.904V114.64C315.904 116.176 315.456 117.352 314.56 118.168C313.664 119 312.384 119.416 310.72 119.416ZM310.456 112.816C311.224 112.816 311.928 112.672 312.568 112.384C313.208 112.096 313.728 111.688 314.128 111.16V105.256C313.728 104.744 313.2 104.344 312.544 104.056C311.904 103.768 311.208 103.624 310.456 103.624C309.624 103.624 308.872 103.824 308.2 104.224C307.544 104.624 307.024 105.176 306.64 105.88C306.256 106.568 306.064 107.344 306.064 108.208C306.064 109.072 306.256 109.856 306.64 110.56C307.04 111.248 307.568 111.8 308.224 112.216C308.896 112.616 309.64 112.816 310.456 112.816ZM323.918 114.52C322.782 114.52 321.742 114.248 320.798 113.704C319.87 113.144 319.134 112.392 318.59 111.448C318.046 110.504 317.774 109.448 317.774 108.28C317.774 107.112 318.046 106.056 318.59 105.112C319.134 104.168 319.87 103.424 320.798 102.88C321.742 102.32 322.782 102.04 323.918 102.04C325.07 102.04 326.11 102.32 327.038 102.88C327.966 103.424 328.702 104.168 329.246 105.112C329.79 106.056 330.062 107.112 330.062 108.28C330.062 109.448 329.79 110.504 329.246 111.448C328.702 112.392 327.966 113.144 327.038 113.704C326.11 114.248 325.07 114.52 323.918 114.52ZM323.918 112.936C324.734 112.936 325.47 112.728 326.126 112.312C326.798 111.896 327.326 111.336 327.71 110.632C328.11 109.928 328.31 109.144 328.31 108.28C328.31 107.4 328.11 106.616 327.71 105.928C327.326 105.224 326.798 104.664 326.126 104.248C325.47 103.832 324.734 103.624 323.918 103.624C323.102 103.624 322.358 103.832 321.686 104.248C321.03 104.664 320.502 105.224 320.102 105.928C319.718 106.616 319.526 107.4 319.526 108.28C319.526 109.144 319.718 109.928 320.102 110.632C320.502 111.336 321.03 111.896 321.686 112.312C322.358 112.728 323.102 112.936 323.918 112.936ZM322.382 99.8798L324.638 97.0958H326.918L323.942 99.8798H322.382ZM337.497 114.496C336.361 114.496 335.329 114.224 334.401 113.68C333.473 113.12 332.737 112.368 332.193 111.424C331.649 110.48 331.377 109.424 331.377 108.256C331.377 107.088 331.649 106.04 332.193 105.112C332.737 104.168 333.473 103.416 334.401 102.856C335.329 102.296 336.361 102.016 337.497 102.016C338.377 102.016 339.225 102.184 340.041 102.52C340.857 102.84 341.577 103.304 342.201 103.912L341.073 105.208C340.593 104.696 340.041 104.312 339.417 104.056C338.809 103.784 338.177 103.648 337.521 103.648C336.705 103.648 335.961 103.856 335.289 104.272C334.633 104.672 334.105 105.224 333.705 105.928C333.321 106.616 333.129 107.392 333.129 108.256C333.129 109.12 333.321 109.904 333.705 110.608C334.105 111.312 334.641 111.872 335.313 112.288C335.985 112.688 336.729 112.888 337.545 112.888C338.201 112.888 338.817 112.76 339.393 112.504C339.985 112.248 340.537 111.872 341.049 111.376L342.153 112.576C341.513 113.184 340.793 113.656 339.993 113.992C339.193 114.328 338.361 114.496 337.497 114.496ZM343.634 114.28V102.256H345.41V114.28H343.634ZM344.522 99.9518C344.202 99.9518 343.922 99.8318 343.682 99.5918C343.442 99.3518 343.322 99.0718 343.322 98.7518C343.322 98.4158 343.442 98.1358 343.682 97.9118C343.922 97.6718 344.202 97.5518 344.522 97.5518C344.858 97.5518 345.138 97.6718 345.362 97.9118C345.602 98.1358 345.722 98.4158 345.722 98.7518C345.722 99.0718 345.602 99.3518 345.362 99.5918C345.138 99.8318 344.858 99.9518 344.522 99.9518ZM353.431 114.52C352.295 114.52 351.255 114.248 350.311 113.704C349.383 113.144 348.647 112.392 348.103 111.448C347.559 110.504 347.287 109.448 347.287 108.28C347.287 107.112 347.559 106.056 348.103 105.112C348.647 104.168 349.383 103.424 350.311 102.88C351.255 102.32 352.295 102.04 353.431 102.04C354.583 102.04 355.623 102.32 356.551 102.88C357.479 103.424 358.215 104.168 358.759 105.112C359.303 106.056 359.575 107.112 359.575 108.28C359.575 109.448 359.303 110.504 358.759 111.448C358.215 112.392 357.479 113.144 356.551 113.704C355.623 114.248 354.583 114.52 353.431 114.52ZM353.431 112.936C354.247 112.936 354.983 112.728 355.639 112.312C356.311 111.896 356.839 111.336 357.223 110.632C357.623 109.928 357.823 109.144 357.823 108.28C357.823 107.4 357.623 106.616 357.223 105.928C356.839 105.224 356.311 104.664 355.639 104.248C354.983 103.832 354.247 103.624 353.431 103.624C352.615 103.624 351.871 103.832 351.199 104.248C350.543 104.664 350.015 105.224 349.615 105.928C349.231 106.616 349.039 107.4 349.039 108.28C349.039 109.144 349.231 109.928 349.615 110.632C350.015 111.336 350.543 111.896 351.199 112.312C351.871 112.728 352.615 112.936 353.431 112.936ZM365.282 114.52C364.29 114.52 363.354 114.36 362.474 114.04C361.61 113.704 360.858 113.24 360.218 112.648L361.298 111.496C361.858 112.008 362.474 112.408 363.146 112.696C363.818 112.968 364.506 113.104 365.21 113.104C366.17 113.104 366.954 112.904 367.562 112.504C368.17 112.104 368.474 111.584 368.474 110.944C368.474 110.416 368.29 110.008 367.922 109.72C367.57 109.416 367.01 109.208 366.242 109.096L364.154 108.808C362.954 108.632 362.058 108.272 361.466 107.728C360.89 107.184 360.602 106.448 360.602 105.52C360.602 104.848 360.794 104.248 361.178 103.72C361.562 103.192 362.09 102.776 362.762 102.472C363.45 102.168 364.234 102.016 365.114 102.016C365.994 102.016 366.818 102.144 367.586 102.4C368.354 102.656 369.106 103.056 369.842 103.6L368.906 104.8C368.234 104.336 367.578 104 366.938 103.792C366.314 103.568 365.674 103.456 365.018 103.456C364.186 103.456 363.514 103.64 363.002 104.008C362.49 104.376 362.234 104.856 362.234 105.448C362.234 105.992 362.41 106.408 362.762 106.696C363.114 106.968 363.682 107.16 364.466 107.272L366.554 107.56C367.754 107.72 368.65 108.072 369.242 108.616C369.85 109.16 370.154 109.904 370.154 110.848C370.154 111.536 369.938 112.16 369.506 112.72C369.074 113.28 368.49 113.72 367.754 114.04C367.034 114.36 366.21 114.52 365.282 114.52Z" fill="white"/>
<path fill-rule="evenodd" clip-rule="evenodd" d="M26.5911 34.7272H26.8758V34.4229H2.31507V34.6679L2.29258 34.6129L2.00806 34.7272L34.6922 114.669L34.5734 114.961L34.858 115.075L35.1425 114.961L35.0234 114.669L46.5243 86.4662L46.8105 86.3561L26.5911 34.7272ZM26.8758 34.4229L2.33932 34.7272L34.8576 114.264L46.2397 86.3521L46.5243 86.4662L26.8758 34.4229Z" fill="#58585A"/>
<path d="M26.8758 34.4229L2.33932 34.7272L34.8576 114.264L46.2397 86.3521L46.5243 86.4662L26.8758 34.4229Z" fill="#58585A"/>
<path fill-rule="evenodd" clip-rule="evenodd" d="M88.4366 33.1823H113.232L78.1629 119.521L65.0836 86.4785L41.5586 28.2129L56.3898 0L78.2402 60.029L88.4366 33.1823ZM88.4366 33.1823H113.232L78.1629 119.521L41.5586 28.2129L56.3898 0L78.2402 60.029L88.4366 33.1823Z" fill="#58585A"/>
<path d="M88.4366 33.1823H113.232L78.1629 119.521L41.5586 28.2129L56.3898 0L78.2402 60.029L88.4366 33.1823Z" fill="#58585A"/>
<path fill-rule="evenodd" clip-rule="evenodd" d="M24.583 39.4811H24.8677V39.1768H0.307009V39.4218L0.284527 39.3668L0 39.4811L32.6841 119.423L32.5653 119.715L32.8499 119.829L33.1345 119.714L33.0154 119.423L44.5163 91.2201L44.8025 91.11L24.583 39.4811ZM24.8677 39.1768L0.331267 39.4811L32.8496 119.018L44.2316 91.106L44.5163 91.2201L24.8677 39.1768Z" fill="white"/>
<path d="M24.8677 39.1768L0.331267 39.4811L32.8496 119.018L44.2316 91.106L44.5163 91.2201L24.8677 39.1768Z" fill="white"/>
<path fill-rule="evenodd" clip-rule="evenodd" d="M81.9275 39.5193L106.138 39.2151V39.46L106.161 39.405L106.444 39.5193L73.6829 119.445L62.048 91.2336L38.7772 33.4353L53.1679 6.05713L73.3991 60.8134L81.9275 39.5193ZM81.9275 39.5193H106.114L73.6833 119.018L38.7772 33.4353L53.1679 6.05713L73.3991 60.8134L81.9275 39.5193Z" fill="white"/>
<path d="M81.9275 39.5193H106.114L73.6833 119.018L38.7772 33.4353L53.1679 6.05713L73.3991 60.8134L81.9275 39.5193Z" fill="white"/>
</svg>
