<svg version="1.2" xmlns="http://www.w3.org/2000/svg" viewBox="0 0 2778 375" width="2778" height="375">
	<title>Logo Synolis VA grey-ai</title>
	<style>
		.s0 { fill: #7f868c } 
		.s1 { fill: #ec1844 } 
	</style>
	<g id="Calque 1">
		<g id="&lt;Group&gt;">
			<g id="&lt;Group&gt;">
				<path id="&lt;Compound Path&gt;" class="s0" d="m80.4 426.1c0-1.3 1.1-2.6 2.6-2.6h56.2c1.5 0 2.6 1.3 2.6 2.6v11.4c0 1.3-1.1 2.6-2.6 2.6h-40.8v25.9h34c1.4 0 2.6 1.2 2.6 2.6v11.3c0 1.4-1.2 2.6-2.6 2.6h-34v34.9c0 1.4-1.3 2.6-2.7 2.6h-12.7c-1.5 0-2.6-1.2-2.6-2.6z"/>
				<path id="&lt;Compound Path&gt;" fill-rule="evenodd" class="s0" d="m245.6 516.5l42.9-92.8c0.4-0.9 1.1-1.5 2.3-1.5h1.4c1.4 0 1.9 0.6 2.3 1.5l42.5 92.8c0.8 1.8-0.3 3.5-2.4 3.5h-12c-2 0-3-0.8-3.9-2.7l-6.8-14.9h-41.2l-6.8 14.9c-0.5 1.4-1.8 2.7-4 2.7h-12c-2 0-3.1-1.7-2.3-3.5zm59.5-29.4l-13.8-30.3h-0.4l-13.5 30.3z"/>
				<path id="&lt;Compound Path&gt;" class="s0" d="m447.1 506.5l5-8.5c1.1-2 3.4-2 4.7-1 0.7 0.4 11.8 8.6 20.8 8.6 7.2 0 12.5-4.7 12.5-10.7 0-7-5.9-11.8-17.5-16.5-12.9-5.2-25.9-13.5-25.9-29.8 0-12.2 9.1-26.4 31-26.4 14.1 0 24.8 7.1 27.6 9.2 1.4 0.8 1.8 3.2 0.8 4.5l-5.2 7.9c-1.1 1.7-3.2 2.8-4.8 1.7-1.1-0.7-11.6-7.6-19.2-7.6-7.9 0-12.1 5.2-12.1 9.6 0 6.5 5.1 10.9 16.2 15.5 13.4 5.3 28.9 13.3 28.9 31.1 0 14.2-12.3 27.3-31.8 27.3-17.3 0-27.5-8.1-30.3-10.7-1.2-1.3-1.9-2-0.7-4.2z"/>
				<path id="&lt;Compound Path&gt;" class="s0" d="m643.8 440.1h-21.1c-1.5 0-2.6-1.3-2.6-2.6v-11.4c0-1.3 1.1-2.6 2.6-2.6h60.3c1.5 0 2.6 1.3 2.6 2.6v11.4c0 1.3-1.1 2.6-2.6 2.6h-21.1v77.3c0 1.4-1.2 2.6-2.6 2.6h-12.8c-1.4 0-2.7-1.2-2.7-2.6z"/>
				<path id="&lt;Compound Path&gt;" fill-rule="evenodd" class="s0" d="m934.4 426.1c0-1.3 1.1-2.6 2.6-2.6h32.4c17 0 30.9 13.8 30.9 30.5 0 17.1-13.9 31-30.7 31h-17.2v32.4c0 1.4-1.3 2.6-2.7 2.6h-12.7c-1.5 0-2.6-1.2-2.6-2.6zm33.9 42.1c7.8 0 14.2-6.2 14.2-14.4 0-7.5-6.4-13.3-14.2-13.3h-15.9v27.7z"/>
				<path id="&lt;Compound Path&gt;" fill-rule="evenodd" class="s0" d="m1101.4 516.5l42.9-92.8c0.4-0.9 1.1-1.5 2.3-1.5h1.4c1.4 0 1.9 0.6 2.3 1.5l42.5 92.8c0.8 1.8-0.3 3.5-2.4 3.5h-12c-2 0-3-0.8-4-2.7l-6.7-14.9h-41.2l-6.8 14.9c-0.5 1.4-1.8 2.7-4 2.7h-12c-2.1 0-3.2-1.7-2.3-3.5zm59.5-29.4l-13.8-30.3h-0.4l-13.5 30.3z"/>
				<path id="&lt;Compound Path&gt;" class="s0" d="m1308.7 426.1c0-1.3 1.2-2.6 2.6-2.6h12.8c1.4 0 2.7 1.3 2.7 2.6v91.3c0 1.4-1.3 2.6-2.7 2.6h-12.8c-1.4 0-2.6-1.2-2.6-2.6z"/>
				<path id="&lt;Compound Path&gt;" class="s0" d="m1455.2 424.6c0-1.3 1.3-2.4 2.7-2.4h3.4l57.4 60.9h0.1v-57c0-1.3 1.1-2.6 2.6-2.6h12.7c1.4 0 2.6 1.3 2.6 2.6v92.8c0 1.4-1.2 2.5-2.6 2.5h-3.3l-57.6-63.3h-0.2v59.3c0 1.4-1.1 2.6-2.6 2.6h-12.5c-1.4 0-2.7-1.2-2.7-2.6z"/>
				<path id="&lt;Compound Path&gt;" fill-rule="evenodd" class="s0" d="m1796 426.1c0-1.3 1.1-2.6 2.6-2.6h39.5c16.5 0 30 13.3 30 29.7 0 12.7-8.4 23-20.4 27.8l18.9 35c1 1.8 0 4-2.3 4h-14.5c-1.3 0-1.9-0.6-2.2-1.2l-18.4-36.5h-15.3v35.1c0 1.4-1.2 2.6-2.6 2.6h-12.7c-1.5 0-2.6-1.2-2.6-2.6zm40.6 41.4c7.3 0 13.6-6.4 13.6-14.1 0-7.3-6.3-13.3-13.6-13.3h-22.5v27.4z"/>
				<path id="&lt;Compound Path&gt;" class="s0" d="m1991.2 426.1c0-1.3 1.1-2.6 2.6-2.6h56.1c1.6 0 2.7 1.3 2.7 2.6v11.4c0 1.3-1.1 2.6-2.7 2.6h-40.8v22.6h34.1c1.4 0 2.6 1.2 2.6 2.6v11.4c0 1.6-1.2 2.7-2.6 2.7h-34.1v24.1h40.8c1.6 0 2.7 1.2 2.7 2.6v11.3c0 1.4-1.1 2.6-2.7 2.6h-56.1c-1.5 0-2.6-1.2-2.6-2.6z"/>
				<path id="&lt;Compound Path&gt;" class="s0" d="m2175.5 426.1c0-1.3 1.1-2.6 2.6-2.6h12.7c1.4 0 2.7 1.3 2.7 2.6v77.4h35.1c1.5 0 2.6 1.2 2.6 2.6v11.3c0 1.4-1.1 2.6-2.6 2.6h-50.5c-1.5 0-2.6-1.2-2.6-2.6z"/>
				<path id="&lt;Compound Path&gt;" class="s0" d="m2348.5 426.1c0-1.3 1.3-2.6 2.6-2.6h12.9c1.3 0 2.6 1.3 2.6 2.6v91.3c0 1.4-1.3 2.6-2.6 2.6h-12.9c-1.3 0-2.6-1.2-2.6-2.6z"/>
				<path id="&lt;Compound Path&gt;" class="s0" d="m2495.1 426.1c0-1.3 1.1-2.6 2.6-2.6h56.1c1.5 0 2.6 1.3 2.6 2.6v11.4c0 1.3-1.1 2.6-2.6 2.6h-40.8v22.6h34c1.4 0 2.7 1.2 2.7 2.6v11.4c0 1.6-1.3 2.7-2.7 2.7h-34v24.1h40.8c1.5 0 2.6 1.2 2.6 2.6v11.3c0 1.4-1.1 2.6-2.6 2.6h-56.1c-1.5 0-2.6-1.2-2.6-2.6z"/>
				<path id="&lt;Compound Path&gt;" class="s0" d="m2679.5 426.1c0-1.3 1.1-2.6 2.6-2.6h56.1c1.6 0 2.7 1.3 2.7 2.6v11.4c0 1.3-1.1 2.6-2.7 2.6h-40.8v25.9h34.1c1.4 0 2.6 1.2 2.6 2.6v11.3c0 1.4-1.2 2.6-2.6 2.6h-34.1v34.9c0 1.4-1.2 2.6-2.6 2.6h-12.7c-1.5 0-2.6-1.2-2.6-2.6z"/>
			</g>
			<g id="&lt;Group&gt;">
				<path id="&lt;Path&gt;" class="s0" d="m59.4 278.9l3.5-4.7c2.8-3.1 5.6-4.3 8.8-1.6 4 3.6 33.4 30.3 73.5 30.3 36.1 0 66.7-24 66.7-52.7 0-35-29-50.7-77.1-66.8-46-16.2-76.6-32.3-76.6-77.5 0-29.5 23.8-69.6 85.8-69.6 39.3 0 68.3 20.1 68.3 20.1 1.6 1.2 4.4 3.9 1.6 8.2-1.2 1.6-2.4 3.6-3.2 5.1-2.4 3.2-4.8 4.4-8.7 2-1.2-0.8-27.8-18.5-58.4-18.5-48.9 0-67.1 29.9-67.1 52.3 0 33.4 25.8 48 65.9 61 54.4 18.4 88.9 37.3 88.9 82.9 0 39.3-40.9 70-86.5 70-47.3 0-79.1-27.5-84.2-32.2-2.4-2-4.4-4-1.2-8.3z"/>
				<path id="&lt;Path&gt;" class="s0" d="m633.3 41.4c0-3.1 2.8-5.1 6-5.1h6.7l190.7 245.8h0.4v-236.7c0-2.8 2.4-5.1 5.1-5.1h8c2.8 0 5.1 2.3 5.1 5.1v268.9c0 3.5-3.1 5.1-6.3 5.1h-5.2c-0.4 0-3.5-1.2-192.2-248.1h-0.4v239.1c0 2.7-2.4 5.1-5.2 5.1h-7.5c-2.8 0-5.2-2.4-5.2-5.1z"/>
				<path id="&lt;Compound Path&gt;" fill-rule="evenodd" class="s0" d="m1122.3 36.3c79.8 0 143.3 63.3 143.3 141.9 0 79.1-63.5 141.2-143.3 141.2-79.5 0-143-62.1-143-141.2 0-78.6 63.5-141.9 143-141.9zm0 265.8c69.5 0 125.9-55 125.9-123.9 0-68.8-56.4-124.6-125.9-124.6-69.6 0-125.5 55.8-125.5 124.6 0 68.9 55.9 123.9 125.5 123.9z"/>
				<path id="&lt;Path&gt;" class="s0" d="m1389.6 45.4c0-2.8 2.4-5.2 5.1-5.2h8.8c2.4 0 4.7 2.4 4.7 5.2v253.6h126.7c4.8 0 5.2 2.3 5.2 5.1v7.1c0 2.7-2.4 4.3-5.2 4.3h-140.2c-2.7 0-5.1-2.4-5.1-5.1z"/>
				<path id="&lt;Path&gt;" class="s0" d="m1643.4 45.4c0-2.8 2.4-5.2 5.2-5.2h8.7c2.8 0 5.1 2.4 5.1 5.2v265c0 3.1-2.7 5.1-5.5 5.1h-8.3c-2.8 0-5.2-2.4-5.2-5.1z"/>
				<path id="&lt;Path&gt;" class="s0" d="m1789.5 278.9l3.6-4.7c2.8-3.1 5.6-4.3 8.8-1.6 3.9 3.6 33.3 30.3 73.4 30.3 36.2 0 66.8-24 66.8-52.7 0-35-29-50.7-77.1-66.8-46.1-16.2-76.6-32.3-76.6-77.5 0-29.5 23.8-69.6 85.8-69.6 39.3 0 68.3 20.1 68.3 20.1 1.6 1.2 4.3 3.9 1.6 8.2-1.2 1.6-2.4 3.6-3.2 5.1-2.4 3.2-4.8 4.4-8.8 2-1.2-0.8-27.8-18.5-58.4-18.5-48.8 0-67.1 29.9-67.1 52.3 0 33.4 25.8 48 66 61 54.4 18.4 88.9 37.3 88.9 82.9 0 39.3-40.9 70-86.6 70-47.2 0-79-27.5-84.2-32.2-2.3-2-4.3-4-1.2-8.3z"/>
				<path id="&lt;Path&gt;" class="s1" d="m2188.7 45.4c-1.6-3.2-0.4-5.2 3.2-5.2h10.7c2.4 0 4 1.6 4.4 2.8l107.2 244.2h0.8l108.5-244.2c0.4-1.2 1.9-2.8 4.3-2.8h10.3c3.6 0 5.2 2.4 3.6 5.6l-121.9 270.1c-0.8 1.9-2.4 3.5-4.8 3.5h-2c-2.3 0-3.9-2.4-4.3-3.5z"/>
				<path id="&lt;Compound Path&gt;" fill-rule="evenodd" class="s1" d="m2492.2 310.8l122.3-273.7c0.8-1.6 2.8-2.8 4.8-2.8h1.2c2 0 3.9 0.4 5.1 2.8l121.2 273.7c0.8 2.3 0.8 4.7-3.6 4.7h-10.3c-2.8 0-4.8-2-5.6-3.6l-32.2-72.3h-151.7l-31.7 72.3c-0.8 1.6-2.8 3.6-5.6 3.6h-11.1c-2.8 0-4-1.6-2.8-4.7zm196.2-86.5l-67.9-158.5h-0.8l-69.1 158.5z"/>
				<path id="&lt;Path&gt;" class="s0" d="m459.7 151.2l51.2-89.3c0.9-1.2 2.7-2.6 4.7-2.6h7.5c4.7 0 7.1 4.6 4.7 8.4l-63.3 88.3c-3.8 5.6-7.9 0.2-4.8-4.8z"/>
				<path id="&lt;Path&gt;" class="s1" d="m414 181.5c1.8-29.6-40.8-37.5-112.3-122.9-14.8-16.4 14.6-34.8 26.8-34 2.7 0.2 5.6 2.2 6.9 3.9 0 0 89.3 105.5 110.1 139.3 1.4 2.3 2.3 3.8 2.3 7.3 0 36.4-17.3 142.8-17.3 142.8 0 4.3-3.8 8.1-8.1 8.1h1.2c-4.7 0-8.2-3.8-8.2-8.1-3.2-84.3-3.2-107.5-1.4-136.4z"/>
			</g>
		</g>
	</g>
</svg>