<svg width="41" height="41" viewBox="0 0 41 41" fill="none" xmlns="http://www.w3.org/2000/svg">
<path d="M0.097168 41L2.97913 30.4715C1.20075 27.3897 0.266293 23.8962 0.268001 20.3138C0.273126 9.11396 9.38708 0 20.5852 0C26.0194 0.00170833 31.1205 2.11833 34.9574 5.95867C38.7926 9.799 40.9041 14.9035 40.9024 20.3326C40.8973 31.5341 31.7833 40.6481 20.5852 40.6481C17.1856 40.6464 13.8356 39.7939 10.8682 38.1744L0.097168 41ZM11.367 34.4964C14.2302 36.1962 16.9635 37.2143 20.5784 37.216C29.8854 37.216 37.467 29.6413 37.4721 20.3292C37.4755 10.9983 29.9298 3.43375 20.592 3.43033C11.2782 3.43033 3.70175 11.0051 3.69833 20.3155C3.69663 24.1165 4.81046 26.9626 6.68108 29.9402L4.97446 36.1722L11.367 34.4964ZM30.8198 25.162C30.6934 24.9502 30.3552 24.8238 29.8461 24.5693C29.3387 24.3147 26.8428 23.0864 26.3765 22.9173C25.9118 22.7482 25.5735 22.6628 25.2336 23.1718C24.8953 23.6792 23.9216 24.8238 23.626 25.162C23.3305 25.5003 23.0332 25.543 22.5259 25.2885C22.0185 25.0339 20.3819 24.4992 18.443 22.7687C16.9345 21.4225 15.9146 19.7603 15.6191 19.2512C15.3235 18.7438 15.5883 18.4688 15.8412 18.216C16.0701 17.9888 16.3485 17.6232 16.6031 17.3259C16.861 17.0321 16.9447 16.8203 17.1156 16.4803C17.2847 16.142 17.201 15.8448 17.0729 15.5903C16.9448 15.3374 15.93 12.8381 15.508 11.8217C15.0946 10.8325 14.6761 10.9658 14.3652 10.9504L13.3914 10.9333C13.0532 10.9333 12.5031 11.0597 12.0384 11.5688C11.5738 12.0779 10.2618 13.3045 10.2618 15.8038C10.2618 18.3031 12.0811 20.717 12.334 21.0552C12.5885 21.3935 15.9129 26.5219 21.0055 28.7205C22.2167 29.2433 23.1631 29.5559 23.8994 29.7899C25.1157 30.176 26.2227 30.1213 27.0974 29.9915C28.0728 29.8463 30.1006 28.7632 30.5243 27.5776C30.948 26.3903 30.948 25.3739 30.8198 25.162Z" fill="white"/>
</svg>
