<svg width="28" height="29" viewBox="0 0 28 29" fill="none" xmlns="http://www.w3.org/2000/svg">
<g clip-path="url(#clip0_214_26)">
<path d="M0.153809 28.2428L2.10198 21.1257C0.899817 19.0424 0.268135 16.6808 0.26929 14.2592C0.272754 6.68826 6.43368 0.527344 14.0035 0.527344C17.6769 0.528499 21.1252 1.95931 23.7189 4.55533C26.3114 7.15134 27.7388 10.6019 27.7376 14.2719C27.7342 21.844 21.5733 28.0049 14.0035 28.0049C11.7054 28.0038 9.4408 27.4275 7.4349 26.3328L0.153809 28.2428ZM7.7721 23.8465C9.70757 24.9955 11.5553 25.6838 13.9988 25.6849C20.2903 25.6849 25.4153 20.5645 25.4188 14.2696C25.4211 7.96202 20.3203 2.84852 14.0081 2.84621C7.71205 2.84621 2.59046 7.96664 2.58815 14.2604C2.587 16.8298 3.33993 18.7537 4.60445 20.7666L3.4508 24.9793L7.7721 23.8465ZM20.9219 17.5366C20.8365 17.3934 20.6078 17.3079 20.2637 17.1358C19.9207 16.9638 18.2335 16.1335 17.9183 16.0191C17.6042 15.9048 17.3755 15.8471 17.1457 16.1912C16.9171 16.5342 16.2588 17.3079 16.059 17.5366C15.8592 17.7652 15.6583 17.7941 15.3153 17.622C14.9724 17.45 13.866 17.0885 12.5553 15.9187C11.5356 15.0087 10.8462 13.8851 10.6464 13.5409C10.4466 13.1979 10.6256 13.012 10.7966 12.8411C10.9513 12.6875 11.1395 12.4404 11.3116 12.2394C11.486 12.0408 11.5426 11.8976 11.658 11.6678C11.7724 11.4392 11.7158 11.2382 11.6292 11.0662C11.5426 10.8952 10.8566 9.20575 10.5714 8.51864C10.2919 7.85001 10.009 7.94008 9.7988 7.92969L9.14055 7.91814C8.9119 7.91814 8.54005 8.00359 8.22594 8.34773C7.91183 8.69186 7.02494 9.52102 7.02494 11.2105C7.02494 12.9 8.25481 14.5317 8.42572 14.7604C8.59779 14.9891 10.8451 18.4558 14.2875 19.942C15.1063 20.2954 15.7461 20.5067 16.2438 20.665C17.066 20.9259 17.8143 20.889 18.4056 20.8012C19.065 20.7031 20.4358 19.9709 20.7222 19.1695C21.0086 18.3669 21.0086 17.6798 20.9219 17.5366Z" fill="#DA051F"/>
</g>
<defs>
<clipPath id="clip0_214_26">
<rect width="27.7155" height="27.7155" fill="white" transform="translate(0.0878906 0.527344)"/>
</clipPath>
</defs>
</svg>
